<svg width="120" height="120" viewBox="0 0 120 120" fill="none" xmlns="http://www.w3.org/2000/svg">
  <!-- Soft Background Circle (matching website bg) -->
  <circle cx="60" cy="60" r="60" fill="#F0F5FA"/>
  
  <!-- Subtle Inner Ring -->
  <circle cx="60" cy="60" r="54" fill="none" stroke="#0B1C2C" stroke-width="1" stroke-dasharray="2 4" opacity="0.1"/>
  
  <!-- Code Brackets in Accent Color -->
  <path d="M32 48L24 60L32 72" stroke="#2C4A66" stroke-width="2.5" stroke-linecap="round" stroke-linejoin="round"/>
  <path d="M88 48L96 60L88 72" stroke="#2C4A66" stroke-width="2.5" stroke-linecap="round" stroke-linejoin="round"/>
  
  <!-- Center H in Ink Color -->
  <path d="M48 45V75M72 45V75M48 60H72" stroke="#0B1C2C" stroke-width="4.5" stroke-linecap="round" stroke-linejoin="round"/>
  
  <!-- Corner Accents for technical feel -->
  <path d="M25 25L35 25M25 25L25 35" stroke="#0B1C2C" stroke-width="1.5" stroke-linecap="round" opacity="0.2"/>
  <path d="M95 25L85 25M95 25L95 35" stroke="#0B1C2C" stroke-width="1.5" stroke-linecap="round" opacity="0.2"/>
  <path d="M25 95L35 95M25 95L25 85" stroke="#0B1C2C" stroke-width="1.5" stroke-linecap="round" opacity="0.2"/>
  <path d="M95 95L85 95M95 95L95 85" stroke="#0B1C2C" stroke-width="1.5" stroke-linecap="round" opacity="0.2"/>
  
  <!-- Top/Bottom Accent Dots -->
  <circle cx="60" cy="22" r="2.5" fill="#2C4A66"/>
  <circle cx="60" cy="98" r="2.5" fill="#2C4A66"/>
</svg>